<?xml version="1.0"?>
<svg xmlns="http://www.w3.org/2000/svg" height="512px" viewBox="0 0 496 496" width="512px"><path d="m240 0h16v16h-16zm0 0" fill="#006DF0"/><path d="m240 32h16v80h-16zm0 0" fill="#006DF0"/><path d="m89.609375 100.921875 11.316406-11.3125 56.566407 56.566406-11.3125 11.3125zm0 0" fill="#006DF0"/><path d="m0 240h16v16h-16zm0 0" fill="#006DF0"/><path d="m32 240h80v16h-80zm0 0" fill="#006DF0"/><path d="m89.601562 395.082031 56.566407-56.566406 11.3125 11.3125-56.566407 56.570313zm0 0" fill="#006DF0"/><path d="m240 480h16v16h-16zm0 0" fill="#006DF0"/><path d="m240 384h16v80h-16zm0 0" fill="#006DF0"/><path d="m338.507812 349.800781 11.3125-11.316406 56.570313 56.570313-11.316406 11.3125zm0 0" fill="#006DF0"/><path d="m480 240h16v16h-16zm0 0" fill="#006DF0"/><path d="m384 240h80v16h-80zm0 0" fill="#006DF0"/><path d="m338.511719 146.175781 56.570312-56.566406 11.3125 11.3125-56.566406 56.570313zm0 0" fill="#006DF0"/><path d="m151.824219 36.71875 14.78125-6.121094 6.121093 14.78125-14.78125 6.121094zm0 0" fill="#006DF0"/><path d="m164.078125 66.28125 14.785156-6.117188 6.117188 14.785157-14.785157 6.117187zm0 0" fill="#006DF0"/><path d="m176.308594 95.847656 14.78125-6.125 6.125 14.78125-14.78125 6.125zm0 0" fill="#006DF0"/><path d="m30.597656 166.613281 6.121094-14.78125 14.78125 6.121094-6.121094 14.78125zm0 0" fill="#006DF0"/><path d="m60.167969 178.859375 6.117187-14.785156 14.785156 6.121093-6.117187 14.78125zm0 0" fill="#006DF0"/><path d="m89.71875 191.101562 6.125-14.78125 14.777344 6.125-6.121094 14.78125zm0 0" fill="#006DF0"/><path d="m30.589844 329.382812 14.78125-6.125 6.125 14.78125-14.78125 6.125zm0 0" fill="#006DF0"/><path d="m60.160156 317.164062 14.78125-6.121093 6.125 14.78125-14.785156 6.121093zm0 0" fill="#006DF0"/><path d="m89.734375 304.898438 14.785156-6.121094 6.117188 14.785156-14.785157 6.117188zm0 0" fill="#006DF0"/><path d="m151.816406 459.277344 6.125-14.789063 14.78125 6.125-6.125 14.789063zm0 0" fill="#006DF0"/><path d="m164.0625 429.707031 6.125-14.777343 14.78125 6.125-6.125 14.777343zm0 0" fill="#006DF0"/><path d="m176.304688 400.152344 6.125-14.78125 14.78125 6.125-6.125 14.78125zm0 0" fill="#006DF0"/><path d="m323.257812 450.628906 14.785157-6.117187 6.121093 14.789062-14.785156 6.121094zm0 0" fill="#006DF0"/><path d="m311.007812 421.050781 14.78125-6.125 6.121094 14.78125-14.777344 6.125zm0 0" fill="#006DF0"/><path d="m298.765625 391.488281 14.78125-6.125 6.125 14.78125-14.78125 6.125zm0 0" fill="#006DF0"/><path d="m444.484375 338.054688 6.125-14.78125 14.78125 6.125-6.125 14.78125zm0 0" fill="#006DF0"/><path d="m414.914062 325.8125 6.125-14.78125 14.78125 6.125-6.125 14.78125zm0 0" fill="#006DF0"/><path d="m385.375 313.5625 6.117188-14.785156 14.785156 6.117187-6.117188 14.785157zm0 0" fill="#006DF0"/><path d="m444.484375 157.953125 14.78125-6.125 6.125 14.78125-14.78125 6.125zm0 0" fill="#006DF0"/><path d="m414.933594 170.191406 14.785156-6.117187 6.117188 14.785156-14.78125 6.117187zm0 0" fill="#006DF0"/><path d="m385.355469 182.4375 14.78125-6.125 6.125 14.78125-14.78125 6.125zm0 0" fill="#006DF0"/><path d="m323.257812 45.386719 6.125-14.78125 14.78125 6.125-6.125 14.78125zm0 0" fill="#006DF0"/><path d="m311.023438 74.949219 6.121093-14.78125 14.78125 6.117187-6.117187 14.785156zm0 0" fill="#006DF0"/><path d="m298.769531 104.511719 6.125-14.78125 14.78125 6.125-6.125 14.78125zm0 0" fill="#006DF0"/><path d="m240 248h16c4.40625 0 8 3.59375 8 8h16c0-13.230469-10.769531-24-24-24v-8h-16v8c-13.230469 0-24 10.769531-24 24s10.769531 24 24 24h16c4.40625 0 8 3.585938 8 8s-3.59375 8-8 8h-16c-4.40625 0-8-3.585938-8-8h-16c0 13.230469 10.769531 24 24 24v8h16v-8c13.230469 0 24-10.769531 24-24s-10.769531-24-24-24h-16c-4.40625 0-8-3.585938-8-8 0-4.40625 3.59375-8 8-8zm0 0" fill="#006DF0"/><path d="m336 312v-20.777344c0-34.839844-11.992188-69.015625-33.753906-96.222656l27.203125-34-2.289063-4.574219c-.425781-.832031-10.457031-20.425781-31.160156-20.425781-7.457031 0-11.433594 5.625-14.0625 9.34375-3.175781 4.496094-4.929688 6.65625-9.9375 6.65625-3.054688 0-3.089844-.0625-4.839844-3.574219-2.175781-4.347656-6.214844-12.425781-19.160156-12.425781s-16.984375 8.078125-19.160156 12.425781c-1.75 3.511719-1.785156 3.574219-4.839844 3.574219-5.007812 0-6.761719-2.160156-9.9375-6.65625-2.628906-3.71875-6.605469-9.34375-14.0625-9.34375-20.703125 0-30.734375 19.59375-31.160156 20.425781l-2.289063 4.574219 30.945313 38.679688c-24.136719 26.632812-37.496094 60.695312-37.496094 96.886718v15.433594c0 22.054688 17.945312 40 40 40h96c22.054688 0 40-17.945312 40-40zm-136.902344-159.976562c.535156.625 1.300782 1.703124 1.902344 2.550781 3.542969 5.027343 9.488281 13.425781 23 13.425781 12.945312 0 16.984375-8.078125 19.160156-12.425781 1.75-3.511719 1.785156-3.574219 4.839844-3.574219s3.089844.0625 4.839844 3.574219c2.175781 4.347656 6.214844 12.425781 19.160156 12.425781 13.511719 0 19.457031-8.398438 23-13.414062.601562-.851563 1.359375-1.929688 1.902344-2.554688 6.058594.367188 10.539062 4.367188 13.175781 7.5625l-25.917969 32.40625h-72.320312l-25.929688-32.414062c2.648438-3.195313 7.128906-7.1875 13.1875-7.5625zm120.902344 159.976562c0 13.230469-10.769531 24-24 24h-96c-13.230469 0-24-10.769531-24-24v-15.433594c0-33.238281 12.535156-64.566406 35.367188-88.566406h80.710937c18.035156 23.863281 27.921875 53.273438 27.921875 83.222656zm0 0" fill="#006DF0"/><path d="m64 88c13.230469 0 24-10.769531 24-24s-10.769531-24-24-24-24 10.769531-24 24 10.769531 24 24 24zm0-32c4.40625 0 8 3.59375 8 8s-3.59375 8-8 8-8-3.59375-8-8 3.59375-8 8-8zm0 0" fill="#006DF0"/><path d="m64 408c-13.230469 0-24 10.769531-24 24s10.769531 24 24 24 24-10.769531 24-24-10.769531-24-24-24zm0 32c-4.40625 0-8-3.585938-8-8s3.59375-8 8-8 8 3.585938 8 8-3.59375 8-8 8zm0 0" fill="#006DF0"/><path d="m432 408c-13.230469 0-24 10.769531-24 24s10.769531 24 24 24 24-10.769531 24-24-10.769531-24-24-24zm0 32c-4.40625 0-8-3.585938-8-8s3.59375-8 8-8 8 3.585938 8 8-3.59375 8-8 8zm0 0" fill="#006DF0"/><path d="m432 88c13.230469 0 24-10.769531 24-24s-10.769531-24-24-24-24 10.769531-24 24 10.769531 24 24 24zm0-32c4.40625 0 8 3.59375 8 8s-3.59375 8-8 8-8-3.59375-8-8 3.59375-8 8-8zm0 0" fill="#006DF0"/></svg>
